/* XPM */
static char *_e42a92d5388467fcc9465b0847ddcefIPlFP6vmqsKAr484[] = {
/* columns rows colors chars-per-pixel */
"67 50 185 2 ",
"   c #005300",
".  c #005A00",
"X  c #046300",
"o  c #0A6500",
"O  c #076900",
"+  c #0D6B00",
"@  c #126E00",
"#  c #196D00",
"$  c #157300",
"%  c #1B7501",
"&  c #177902",
"*  c #1C7B01",
"=  c #1E7D09",
"-  c #207600",
";  c #227D02",
":  c #2C7F00",
">  c #227E0A",
",  c #1F810A",
"<  c #248303",
"1  c #2A8404",
"2  c #278807",
"3  c #2C8A04",
"4  c #25830B",
"5  c #2A860B",
"6  c #2C8B0C",
"7  c #328600",
"8  c #338B04",
"9  c #3A8E04",
"0  c #31860E",
"q  c #328D0C",
"w  c #3B8E0B",
"e  c #379407",
"r  c #3D9304",
"t  c #34920C",
"y  c #3B930C",
"u  c #37980D",
"i  c #3B9A0E",
"p  c #258611",
"a  c #2B8612",
"s  c #268811",
"d  c #2D8B13",
"f  c #2C8C19",
"g  c #308412",
"h  c #328E13",
"j  c #398F14",
"k  c #328D19",
"l  c #388C1C",
"z  c #2E9017",
"x  c #2F901A",
"c  c #349214",
"v  c #3A9514",
"b  c #379817",
"n  c #3C9A14",
"m  c #35931A",
"M  c #3A961B",
"N  c #3C9A1C",
"B  c #3FA112",
"V  c #3FA01F",
"C  c #349320",
"Z  c #3A9522",
"A  c #379824",
"S  c #3D9B22",
"D  c #3E9D2A",
"F  c #42950C",
"G  c #439A0C",
"H  c #429613",
"J  c #489513",
"K  c #449C14",
"L  c #499C14",
"P  c #41961C",
"I  c #439C1C",
"U  c #4A9D1B",
"Y  c #539E1D",
"T  c #4CA00D",
"R  c #44A217",
"E  c #4CA213",
"W  c #44A21C",
"Q  c #4CA31B",
"!  c #4BAA1D",
"~  c #52A516",
"^  c #52A51C",
"/  c #58A61F",
"(  c #52A91D",
")  c #5AAD1F",
"_  c #439720",
"`  c #439D22",
"'  c #499E22",
"]  c #439D2A",
"[  c #45A223",
"{  c #4AA423",
"}  c #4CAA24",
"|  c #45A32B",
" . c #4AA52A",
".. c #47AB2D",
"X. c #4CAA2B",
"o. c #52A623",
"O. c #54AC24",
"+. c #5AAC24",
"@. c #52A72B",
"#. c #53AD2B",
"$. c #5AAE2A",
"%. c #4FB023",
"&. c #4CB02C",
"*. c #53B125",
"=. c #5BB125",
"-. c #55B32C",
";. c #5BB32C",
":. c #5BBA2D",
">. c #45A331",
",. c #4AA632",
"<. c #4DAB33",
"1. c #52A530",
"2. c #52AD32",
"3. c #59AD32",
"4. c #52AE39",
"5. c #5AAF38",
"6. c #55B233",
"7. c #5AB433",
"8. c #5CBA34",
"9. c #55B13B",
"0. c #5AB53B",
"q. c #5CBA3B",
"w. c #60AD23",
"e. c #62B427",
"r. c #60B824",
"t. c #62B52D",
"y. c #64B92D",
"u. c #6ABB2D",
"i. c #62B633",
"p. c #64BA34",
"a. c #6ABC34",
"s. c #61B53A",
"d. c #63BC3B",
"f. c #6ABE3A",
"g. c #71BE3A",
"h. c #5FC13B",
"j. c #64C235",
"k. c #6EC233",
"l. c #65C23C",
"z. c #6CC33B",
"x. c #6ACB3E",
"c. c #70C136",
"v. c #72C43C",
"b. c #76CA3B",
"n. c #56B541",
"m. c #5AB641",
"M. c #5DBB43",
"N. c #63B640",
"B. c #62BD41",
"V. c #6ABE42",
"C. c #62BE48",
"Z. c #65C243",
"A. c #6BC443",
"S. c #6CCA44",
"D. c #65C24A",
"F. c #6BC649",
"G. c #6ECC4C",
"H. c #72C543",
"J. c #73CA44",
"K. c #7ACB44",
"L. c #71C64D",
"P. c #73CA4A",
"I. c #7BCD4A",
"U. c #73D04B",
"Y. c #7CD34C",
"T. c #6EC952",
"R. c #74CC51",
"E. c #71CE59",
"W. c #73D252",
"Q. c #7CD453",
"!. c #76DA54",
"~. c #7EDA55",
"^. c #7ED458",
"/. c #7FDD61",
"(. c #80D146",
"). c #82D843",
"_. c #82D44C",
"`. c #82D551",
"'. c #82D955",
"]. c #89DB53",
"[. c #88DB59",
"{. c #8DE34E",
"}. c #80DD68",
"|. c #8AE661",
" X c #A4FD7D",
/* pixels */
"W *.R B } B &.B < N ....; 9.S M l.i Q W e W :.} u 3 e W -.} R u i *.j.J.'.K.a.J.3.i.i.Y @.Y i.$.i.].y.y._.I.H.+.o.$.E F r G =.~ ( ! r ",
"n R B } -.u } ..z c 2 [ m X.| N W u :.*.3 e K W R ! 8.8.8.} n e i i e R x.b.v.K.K._.K.s.i.Y P.[.v.K.t.t.K.K.f.i.t.9 1 L K G ) ) j.p.! ",
"%.R t t 8.[ B q 6 N * d M b [ m 8 t *.W e u t t i c t v } p.X.u *.j.*.:.a.p.;.z.I.f.f.f.I.5.H.I.v.u.v.v.a.f.f.H.`.+.U a.=.G T r O.;.=.",
"2 &.%., 6 2 b b < } b < 6 z N c N R } K W 8.-.} W -.O.n u I -.l.t W -.:.#.o.$.z.o.J J $.`.H.'.`.i.O.J.z.O.i.p.p.$.v.v.v.k.=.r.( E O.=.",
", B -.< 6 t N V 6 [ } 2 6 N c N u n } n n -.O.-.P.-.b R -.8.8.q.W W } #.$.p.H.I.I.I.H.a.a.! p.p.p.Q y.! y ;.$.U 7 I.a.w.b.b.r.u.! ;.y.",
"V 2 b c  .[ N 6 b 6 b z c [ 3 [ v 6 N c c { N q { } 8.d.#.W } l.#.} 7.#.K v U H i.f.v.z.J.p.J.j.*.*.x.O.3 U ;.U o.].a.o.(.c.) u.( y.p.",
"N < ..` 6 , c N b t q [ 6 N b ..#.c } 6.{ 6.X.b l.8.8.q.q.-.{ I [ } d.d.@.o.$.' $.$.i.v.Y.:.=.! R *.x.x.O.#.p.O.$.H.a.a.v.u.u.a.^ ;.=.",
"c $ S 2 $ < V b 2 &.V 6.< N :.6.N h M.A.N { 0.7.[ &.#.[ I } 8.8.[ c h N { s.f.o.^ o.i.x.z.i %.h.! R R U.|.~.P.v U f.(.g.~ T w.L G ! Q ",
"c S V c ..2 2 ..< * [ N b  .W  .a 0.Z.q.X.5 7.[ W W < { } d.8.t { { #.7.5.i.$.v $.{ z.;.:.:.%.:.l.R B 3 { -.@.d.$.Y L +.K.(.e.a.G K Q ",
"2 d s M .. .h c N 6 ..t 6 < z [ N } v ` M v #.c Z.-.v %.W -.6.-.7.` ` 2.#.' I J @.f.#.W 3 S.} W W &.S.W ;.l.{ q P o.;.+.K.].g.u.z.z.j.",
"m 6 * N v N c <.q.c  .z b , z c N  .< N 2 I 6.X.b t W -.u t e %.-.2. .v H ' { H ;.#.#.p.h.x.:.h.:.B p.8.Z.} H U O.i.A.i.v.b.e.e.a.y.=.",
"2 < c Z. .4 < | 9.S | b c * < * o 4 h #. .{ I 3 < * } 8.O.! e R I #.} v v U @.@.{ @.-.W V V B 3 :.&.7.n W } 2.I H.7.;.$.$.O.G ^ x.p.=.",
"h < N } ..c M S h a * p < S Z 5 ` q 1 4 b I 8.} { 8 R } j.Y.*.B v v K @.-.v I L.d.I ; S.8.B.&.!.U.W } ;.z.7.Z.d.d.K n K ^ =.Q ! ! K r ",
"X.V 6 $ N &.7.N + N k m . = >.D.` n 2.} #.W -.} O.R *.%.j.j.j.i y W @.;.d.$.3.Y.s.d.W N ..6.&., W 8.7.q [ ~. Xd.{ v K K O.S.j.( O.! K ",
"u } N 2 N [ c * M.2.> k p D D 4 M N } N 3 6 } l.} *.x.j.j.! :.} 8 p.8.W 7.A.p.7.$.M #. .W.2 ..V v 9 y q y ' ^.B.{ n #.} ! j.:.Q =.=.) ",
"2 } N c $ X   4 * S ,.n.C > >.4.` v c N 3 { O.x.8.! R *.j.R j.*.u 7.} n O.7.{ ' 6.6.B.F.q., &.G.} { 7.p.{ j d.#.} w W O.R G i R k.v.v.",
"q.x & , & + s s $ & C f f D D n.A D [  .2 q.M } Z.6.W { } j.n R W W #.6.q.7. .6...S.V :.G.%.e j.#.i.F.V.5.3.f.f.$.d.y U o.9 ( e.k.).{.",
"x z , z x m x , p & p >.>.f C <.s m 5 2. .2 j k 6.X.S.[ l.8.-.} b N 8.I + c X.b 6 V &.x.B 3 B -.I 0.#.1.^.I.@.7.d.g.^ =.=.F +.e.~ L ~ ",
"s x x + & x x z $ p $ f f = x p * ] 7...X.; X.' I 7.d.} X.l.#.} 6.W q...2 M <.[ 0.&.&.h.u u %.-.#.@.'  .6.A.P.P.A.H.a.Y.v.O.i.e.t.U F ",
", z x & p D p x s A f p p f D x M * m $ I <.{ c ' X.N n n 7.}  .6.<...,.q...6 V W ..3 V %.%.! -.{  .1.0.#.d.S.i.$.@.#.J.p.^ e.Q $.a.i.",
"* $ $ * z C & x f * > p = = , | ] 5  .` S v M Z.F.2.6.5 6.1 N t c [ N 4 m c * d N 6.c b u b B :.6.d.b * { 7.;.F.A.-.;.z.z.y.a.:.) u.b.",
"f f S S x p s 4.k p D m m S m <.c N ;  .` k v 5 N N X.{ F.{ B.F.q.b N C m | 4.q.d S &.G.} } R < 2  ...V #.7.7.8.l.{ n U K K Q E ^ 9 8 ",
". > ] ] = O & $ * h Z s s N m a < X.` 2.N c  .[ 6.D.0.d.q. . .` m = s Z C S m S | N * q 6 &.h.&.V } 0.} 2 n l.l.p.#.! ! } K y } V.+.J ",
"= C p > % f | $ f m 2 N ` f N c _ $ ; 5 M [ c 9.{  .2.k G.[ d.M X M./.q.0...* < 6 q.b W A.h.3 6 6.G.6.t b b 6 n } } -.-.;.W 8 Q ' 3.s.",
"C f >.f 4 $ a >.m S $ ; 5 M m m c [ 5 h M h ' [ $ c 2.[  .k M M >.9.M.m | | S [ 6.6 !.-.6.[ [ u &.6 N } < 3 n * < :.-.O.O.O.8.{ P 1.N.",
"S k k > 4 >.S ; q.4 4 S 5 2 2.m 5 ` [ ` 2.M 2.0.m '  .| Z X.[ > k ] 9.h  .M.0...2 $ ..W.&.b 2 V b W b t :.8.W q t t t } 7.{ ;.p.s.5.@.",
"> % l >.# 4 5 M % * * 5 q.[ 6.B. .X.M S  .N j a 4. .| 4.a ' ] Z f p S f S ..} N 6 b c B 3 l.} & W W u I 8.I 3 { ;.I n ;.Q - 1 w f.t.$.",
">.# f 4.m ] Z k 5 5  .#.[ ..P.{  .X.2 ' N 2.m M 5.N 5 Z a > 5 5.] % f S m 6 2 t h.-.&.&.} } q.6.} b W h.6.{ O.d.S.@.Q 7.d.8.o.8 w 8 w ",
">.o % % g ,.Z . h N I [ % < N 1 0 N N _ N N k ` T.<.a k m.M k m.<.p S <.N b b %.b W ! } V V X.} #.7.8.;.;.l.p.K $.7.s.i.i.H.H.s._ g - ",
"] > Z k C g l - ; 2.` 3.6.{ c 8.1 4  .2 2.h h 5 0.C.m.] C.| Z ,.>.| 6.&.[ 7.&.:.:.B u h.8.:.W l.j.Q.l.W #.{ v Q $.i.f.o.Y ' U 7.1.] l ",
"l o % k a % % 5 5 v N 6.[ v W v 1 * c q M.q.] M 5 ] 4.| Z k l Z Z <.<. .N 8.W W t j.S.B 3 :.} -.8.i.#.;.i.{ @.I.d.$.H 0 f.H.U U H P ' ",
"  # > g # > % v 0 6.h o v 3 8 N 5 c 2 _ c 6.> v 5 % k 5.g ] ,.Z s M m N B &.3 n %.u h.u 8.:.} #.! 1 Q z.i.p.i.w 0 t.t.J s.f.J @.V.H.K.",
"O M * . c N h , 6 2 b < 6 B 2 c 6 | m ; M M c X.5 M 2.' Z X._ 0 5 m V < { -.6.h.b *.n h.u *.u -.l.#.b.;.o.t.Q p.@.^ o.e.: F i.V.V.N.s.",
"% < $ [ d [ V N X. .1 < N W b b b m c h N S v 5 S X.# h > 0.2. .I c 7.q.b V V 8 6.-.! b B q u } =.R p.a.;.o.L p.U U i.i.U U w.Y 3.i.s.",
"$ @ m c c X N } $ 6 3 W &.b [ b < 4 [ ..m c  . .# 2.@. .#.5 0.5.6 M ` 6.N I 2 R W -.} l.q.-.R O.} L W O.O.! L ! +.^ a.e.i.@.i.H @.o.o.",
"S <.< * c [ z c * b n c b ; t N [ z 4 c M N N N 6 6.> ] } @.M j X.d.7.6.-...< W t N v -.W } b *.! :.O.Q Q +.f.;.a.O.o.U Y o.t.Y $.U w ",
"c D.[ m 6 c m S c 6  .q W N c N 6.F.M.} m * <  .S <.h  .1.q.h ' B.} S.B.8.7.X.3 } } 8.[ 7.c R { i ;.;.! F Q z.z.H.t.U O./ t.a.H.e.w.w.",
"h $ d 6 c * [ $ $ < &.t ..} b W N ..c s ` 6 @ 4 q.M h 0 F.Z.' M ' k } v 6.q.q.{ c W U I W W n U ;.L H Q ^ U J L L F 7 L F U L +.b.v.g.",
"* * s 0.$ * < , 6 V 9.& < * b b 2 ..q.q.9.| [ 6.M [ ; { @ 2 0 B.' ,.I 5 } X.I Z.} q.q } y U.7.l.S.v H Q p.i.y i Y $.o./ +.y.w.o.Y / Y ",
"f c d 6 m * * + * [ V & c < { , z V M.Z.6.6.6.` q N 0 2.' - v h m : k  .1 c v #.I #.I W -.F.} 3 y : K i K O.y o.^ t.e.9 ^ $.e.J / t.v.",
" .| ,.; d ..h q./.N d <.b < } 6.b ....3 8.z 1 N 5 ; 5 F.b [ v 0 ;  .v v I M #.6.v N v I 1 1 O.W w $.z.7.L 8 7 w ^ $.! F ^ +./ +.Y J o.",
"4 4 S = $ m f h [ 5 6 c &.6.c N 2 q 6 6 h.N 3 5 Z.X.I w 1 W ' ; > @.G.2.j M P q 0 I n q d.c c U 6.7.;.i.f.p.;.f.t.# J _.e.y.].a.i.Y Y ",
"T.S f Z f c d * * < ..m S <.c q.V b b N 6. .I [ v v 6.' 2.I ' 0 5 1.5.-  .R. .' 5 1 0 7.{ #.H { v I @.z.A.@.i H 8 L 9 L _.c.^ K.U U H ",
"A * $ m m 4 ] [ ] 5 q.X.$ + * V V b t z c [ { N N h v q Z.6.6.{ 5.; j N 0 > j 1.d.' v [ o M U A.$.p.f.i.U 1 1 H L +.J r e.u.~ ^ w J F ",
"@ f o + f k m $ p $ 0 [ h m 6...b b t 3 q } } < $ #.6.; * 1 v { ' 0._ g 1.: 5 _ {  .7.-  .P @.A.{ 7.i.@.} o.$.z.f.U E ;.+.u.k.) =.=.G ",
"p Z + @ c m S S N ..6 4 N ` S t V X.6.c 2 b } c 6 6.-.} { @.v t l ' ' h  .5.'.j 0 j 3.U H.A.i.I s.s.@.{ $.$.H 7 U y.^ F a.v.) ) =.=.=.",
"4.] m Z > . $ | 5 f * o $ 2 < c N V ..3 6 ; b R < b I { t 5 5 @.0 g P _ N.- j L.A.3.P 3.j 5.#.0 ' J w j Q @.$.i.L ~ ^ r F u.e.r T ~ r.",
"h . . 4 S | m + S X 4 2 $ 4 , c b , < < 8.} [ c U @.} W { #.@.P j : 5.P 5.' _ ' ' $.j ' 3.U U P 5 I #.;.U : 1 Q i.F G / E ( =.^ T G ( ",
"o j _ ` k X.* 6 6 $ 6 m c m 2 2 O * < > B.I  .d.' j j w c v q v j P ' ' s.{ } 8 I w a.i.V.K.v.V.H i.+.8.z.z.v H U O.H w 8 Q y y K 3 K ",
"# P j M 5 | ; M z * 6 b N S a 5 4 f s ; 2.4 j ' ' P H P U } W O.1.X._ v v v 7.;.Q J i.w.g.g.Y Y O.i.O.O.O.;.F i Q 7.Q I v o.U { ;.W p."
};
